<?xml version="1.0" standalone="no"?>
<!DOCTYPE svg PUBLIC "-//W3C//DTD SVG 20010904//EN"
 "http://www.w3.org/TR/2001/REC-SVG-20010904/DTD/svg10.dtd">
<svg version="1.0" xmlns="http://www.w3.org/2000/svg"
 width="283.000000pt" height="283.000000pt" viewBox="0 0 283.000000 283.000000"
 preserveAspectRatio="xMidYMid meet">
<metadata>
Created by potrace 1.11, written by Peter Selinger 2001-2013
</metadata>
<g transform="translate(0.000000,283.000000) scale(0.100000,-0.100000)"
fill="#000000" stroke="none">
<path d="M1597 2743 c-27 -6 -64 -20 -82 -30 -68 -37 -383 -339 -529 -508 -39
-44 -75 -85 -82 -90 -23 -20 -72 -112 -109 -206 -29 -73 -38 -110 -40 -169 -5
-147 57 -371 131 -467 51 -66 64 -126 49 -211 -7 -43 -54 -115 -128 -197 -10
-11 -37 -45 -60 -75 -23 -30 -49 -61 -57 -70 -8 -9 -26 -31 -40 -50 -14 -18
-32 -40 -40 -49 -9 -9 -33 -38 -55 -66 -22 -27 -42 -52 -45 -55 -3 -3 -41 -50
-85 -105 -44 -55 -87 -109 -97 -120 -9 -11 -32 -39 -52 -63 l-36 -44 58 -49
c31 -27 60 -49 63 -49 4 0 44 46 90 103 46 56 86 104 89 107 3 3 32 39 65 80
32 41 61 77 64 80 4 3 24 28 46 55 22 28 44 55 50 61 5 6 24 28 40 49 38 49
127 157 140 171 5 6 26 31 45 56 56 74 165 135 221 124 13 -2 60 -16 103 -30
111 -37 178 -48 296 -50 158 -3 258 26 363 105 161 121 303 302 538 689 36 58
70 119 77 135 21 51 21 128 2 185 -19 55 -43 82 -150 170 -61 49 -75 61 -140
117 -25 21 -99 84 -165 139 -66 55 -180 151 -253 212 -73 62 -142 112 -152
112 -10 0 -21 4 -25 10 -3 6 -15 6 -30 0 -13 -5 -25 -6 -27 -2 -2 4 -25 2 -51
-5z"/>
</g>
</svg>
